<svg version="1.1" viewBox="0.0 0.0 871.0 539.0" fill="none" stroke="none" stroke-linecap="square" stroke-miterlimit="10" width="871" height="539" xmlns:xlink="http://www.w3.org/1999/xlink" xmlns="http://www.w3.org/2000/svg"><path fill="#ffffff" d="M0 0L871.0 0L871.0 539.0L0 539.0L0 0Z" fill-rule="nonzero"/><path stroke="#cccccc" stroke-width="1.0" stroke-linecap="butt" d="M132.5 107.5L132.5 460.5" fill-rule="nonzero"/><path stroke="#cccccc" stroke-width="1.0" stroke-linecap="butt" d="M264.5 107.5L264.5 460.5" fill-rule="nonzero"/><path stroke="#cccccc" stroke-width="1.0" stroke-linecap="butt" d="M395.5 107.5L395.5 460.5" fill-rule="nonzero"/><path stroke="#cccccc" stroke-width="1.0" stroke-linecap="butt" d="M527.5 107.5L527.5 460.5" fill-rule="nonzero"/><path stroke="#cccccc" stroke-width="1.0" stroke-linecap="butt" d="M658.5 107.5L658.5 460.5" fill-rule="nonzero"/><path stroke="#cccccc" stroke-width="1.0" stroke-linecap="butt" d="M790.5 107.5L790.5 460.5" fill-rule="nonzero"/><path stroke="#cccccc" stroke-width="1.0" stroke-linecap="butt" d="M85.5 460.5L844.5 460.5" fill-rule="nonzero"/><path stroke="#cccccc" stroke-width="1.0" stroke-linecap="butt" d="M85.5 428.5L844.5 428.5" fill-rule="nonzero"/><path stroke="#cccccc" stroke-width="1.0" stroke-linecap="butt" d="M85.5 396.5L844.5 396.5" fill-rule="nonzero"/><path stroke="#cccccc" stroke-width="1.0" stroke-linecap="butt" d="M85.5 364.5L844.5 364.5" fill-rule="nonzero"/><path stroke="#cccccc" stroke-width="1.0" stroke-linecap="butt" d="M85.5 331.5L844.5 331.5" fill-rule="nonzero"/><path stroke="#cccccc" stroke-width="1.0" stroke-linecap="butt" d="M85.5 299.5L844.5 299.5" fill-rule="nonzero"/><path stroke="#cccccc" stroke-width="1.0" stroke-linecap="butt" d="M85.5 267.5L844.5 267.5" fill-rule="nonzero"/><path stroke="#cccccc" stroke-width="1.0" stroke-linecap="butt" d="M85.5 235.5L844.5 235.5" fill-rule="nonzero"/><path stroke="#cccccc" stroke-width="1.0" stroke-linecap="butt" d="M85.5 203.5L844.5 203.5" fill-rule="nonzero"/><path stroke="#cccccc" stroke-width="1.0" stroke-linecap="butt" d="M85.5 171.5L844.5 171.5" fill-rule="nonzero"/><path stroke="#cccccc" stroke-width="1.0" stroke-linecap="butt" d="M85.5 139.5L844.5 139.5" fill-rule="nonzero"/><path stroke="#cccccc" stroke-width="1.0" stroke-linecap="butt" d="M85.5 107.5L844.5 107.5" fill-rule="nonzero"/><clipPath id="id_0"><path d="M85.95 107.88333L844.05 107.88333L844.05 460.05L85.95 460.05L85.95 107.88333Z" clip-rule="nonzero"/></clipPath><path stroke="#4285f4" stroke-width="2.0" stroke-linecap="butt" clip-path="url(#id_0)" d="M100.36174 372.40298C100.36174 372.40298 96.870026 381.45633 95.69296 381.93356C94.51591 382.41083 98.04708 385.3262 99.22414 386.27838C100.4012 387.23053 103.67373 388.3171 105.89852 388.8644C108.123314 389.41168 184.80746 396.24097 204.40977 399.162C224.01207 402.083 251.14798 408.96765 263.21667 410.54086C275.28534 412.11407 287.4154 411.07907 299.42273 412.97443C311.43002 414.86975 323.43735 419.7882 335.44464 421.9253C347.45197 424.0624 362.90497 425.56714 376.63513 426.35254C390.3653 427.13797 525.3785 427.38266 525.3785 427.38266" fill-rule="nonzero"/><path stroke="#ea4335" stroke-width="2.0" stroke-linecap="butt" clip-path="url(#id_0)" d="M153.02031 353.16254C153.02031 353.16254 251.51842 339.57443 256.42392 326.36765C261.32944 313.16086 266.23492 261.86447 271.14044 250.94038C276.04593 240.01628 383.989 340.18222 440.4133 364.61346C496.83755 389.0447 734.53107 423.8544 759.47504 426.65363C784.41907 429.45285 834.307 428.89822 834.307 428.89822" fill-rule="nonzero"/><path stroke="#fbbc04" stroke-width="2.0" stroke-linecap="butt" clip-path="url(#id_0)" d="M137.60677 255.94298C137.60677 255.94298 192.18108 301.01205 214.99014 312.69757C237.79921 324.3831 282.4025 333.8982 283.41736 332.6247C284.43222 331.35117 285.44708 325.43524 286.4619 324.09692C287.47678 322.7586 327.66116 332.2576 348.26077 334.2025C368.8604 336.14743 396.90814 335.7128 421.23184 336.0492C445.5555 336.38556 584.8035 336.43393 584.8035 336.43393" fill-rule="nonzero"/><path fill="#4285f4" clip-path="url(#id_0)" d="M106.36174 372.40298C106.36174 375.71667 103.67545 378.40298 100.36174 378.40298C97.048035 378.40298 94.36174 375.71667 94.36174 372.40298C94.36174 369.08926 97.048035 366.40298 100.36174 366.40298C103.67545 366.40298 106.36174 369.08926 106.36174 372.40298Z" fill-rule="nonzero"/><path fill="#4285f4" clip-path="url(#id_0)" d="M101.69296 381.93356C101.69296 385.24728 99.006676 387.93356 95.69296 387.93356C92.37926 387.93356 89.69296 385.24728 89.69296 381.93356C89.69296 378.61987 92.37926 375.93356 95.69296 375.93356C99.006676 375.93356 101.69296 378.61987 101.69296 381.93356Z" fill-rule="nonzero"/><path fill="#4285f4" clip-path="url(#id_0)" d="M105.22414 386.27838C105.22414 389.59207 102.53785 392.27838 99.22414 392.27838C95.91043 392.27838 93.22414 389.59207 93.22414 386.27838C93.22414 382.96466 95.91043 380.27838 99.22414 380.27838C102.53785 380.27838 105.22414 382.96466 105.22414 386.27838Z" fill-rule="nonzero"/><path fill="#4285f4" clip-path="url(#id_0)" d="M111.89852 388.8644C111.89852 392.1781 109.21223 394.8644 105.89852 394.8644C102.584816 394.8644 99.89852 392.1781 99.89852 388.8644C99.89852 385.5507 102.584816 382.8644 105.89852 382.8644C109.21223 382.8644 111.89852 385.5507 111.89852 388.8644Z" fill-rule="nonzero"/><path fill="#4285f4" clip-path="url(#id_0)" d="M210.40977 399.162C210.40977 402.4757 207.72348 405.162 204.40977 405.162C201.09605 405.162 198.40977 402.4757 198.40977 399.162C198.40977 395.84827 201.09605 393.162 204.40977 393.162C207.72348 393.162 210.40977 395.84827 210.40977 399.162Z" fill-rule="nonzero"/><path fill="#4285f4" clip-path="url(#id_0)" d="M269.21667 410.54086C269.21667 413.85458 266.53036 416.54086 263.21667 416.54086C259.90295 416.54086 257.21667 413.85458 257.21667 410.54086C257.21667 407.22714 259.90295 404.54086 263.21667 404.54086C266.53036 404.54086 269.21667 407.22714 269.21667 410.54086Z" fill-rule="nonzero"/><path fill="#4285f4" clip-path="url(#id_0)" d="M305.42273 412.97443C305.42273 416.28812 302.73642 418.97443 299.42273 418.97443C296.109 418.97443 293.42273 416.28812 293.42273 412.97443C293.42273 409.6607 296.109 406.97443 299.42273 406.97443C302.73642 406.97443 305.42273 409.6607 305.42273 412.97443Z" fill-rule="nonzero"/><path fill="#4285f4" clip-path="url(#id_0)" d="M341.44464 421.9253C341.44464 425.239 338.75836 427.9253 335.44464 427.9253C332.13095 427.9253 329.44464 425.239 329.44464 421.9253C329.44464 418.6116 332.13095 415.9253 335.44464 415.9253C338.75836 415.9253 341.44464 418.6116 341.44464 421.9253Z" fill-rule="nonzero"/><path fill="#4285f4" clip-path="url(#id_0)" d="M382.63513 426.35254C382.63513 429.66626 379.94882 432.35254 376.63513 432.35254C373.3214 432.35254 370.63513 429.66626 370.63513 426.35254C370.63513 423.03885 373.3214 420.35254 376.63513 420.35254C379.94882 420.35254 382.63513 423.03885 382.63513 426.35254Z" fill-rule="nonzero"/><path fill="#4285f4" clip-path="url(#id_0)" d="M531.3785 427.38266C531.3785 430.69638 528.6922 433.38266 525.3785 433.38266C522.0648 433.38266 519.3785 430.69638 519.3785 427.38266C519.3785 424.06894 522.0648 421.38266 525.3785 421.38266C528.6922 421.38266 531.3785 424.06894 531.3785 427.38266Z" fill-rule="nonzero"/><path fill="#ea4335" clip-path="url(#id_0)" d="M159.02031 353.16254C159.02031 356.47626 156.33403 359.16254 153.02031 359.16254C149.7066 359.16254 147.02031 356.47626 147.02031 353.16254C147.02031 349.84882 149.7066 347.16254 153.02031 347.16254C156.33403 347.16254 159.02031 349.84882 159.02031 353.16254Z" fill-rule="nonzero"/><path fill="#ea4335" clip-path="url(#id_0)" d="M262.42392 326.36765C262.42392 329.68134 259.73764 332.36765 256.42392 332.36765C253.11021 332.36765 250.42392 329.68134 250.42392 326.36765C250.42392 323.05392 253.11021 320.36765 256.42392 320.36765C259.73764 320.36765 262.42392 323.05392 262.42392 326.36765Z" fill-rule="nonzero"/><path fill="#ea4335" clip-path="url(#id_0)" d="M277.14044 250.94038C277.14044 254.25409 274.45413 256.94037 271.14044 256.94037C267.82672 256.94037 265.14044 254.25409 265.14044 250.94038C265.14044 247.62668 267.82672 244.94038 271.14044 244.94038C274.45413 244.94038 277.14044 247.62668 277.14044 250.94038Z" fill-rule="nonzero"/><path fill="#ea4335" clip-path="url(#id_0)" d="M446.4133 364.61346C446.4133 367.9272 443.727 370.61346 440.4133 370.61346C437.09958 370.61346 434.4133 367.9272 434.4133 364.61346C434.4133 361.29974 437.09958 358.61346 440.4133 358.61346C443.727 358.61346 446.4133 361.29974 446.4133 364.61346Z" fill-rule="nonzero"/><path fill="#ea4335" clip-path="url(#id_0)" d="M765.47504 426.65363C765.47504 429.96735 762.78876 432.65363 759.47504 432.65363C756.1613 432.65363 753.47504 429.96735 753.47504 426.65363C753.47504 423.3399 756.1613 420.65363 759.47504 420.65363C762.78876 420.65363 765.47504 423.3399 765.47504 426.65363Z" fill-rule="nonzero"/><path fill="#ea4335" clip-path="url(#id_0)" d="M840.307 428.89822C840.307 432.21194 837.6207 434.89822 834.307 434.89822C830.99335 434.89822 828.307 432.21194 828.307 428.89822C828.307 425.58453 830.99335 422.89822 834.307 422.89822C837.6207 422.89822 840.307 425.58453 840.307 428.89822Z" fill-rule="nonzero"/><path fill="#fbbc04" clip-path="url(#id_0)" d="M143.60677 255.94298C143.60677 259.25668 140.92047 261.943 137.60677 261.943C134.29306 261.943 131.60677 259.25668 131.60677 255.94298C131.60677 252.62927 134.29306 249.94298 137.60677 249.94298C140.92047 249.94298 143.60677 252.62927 143.60677 255.94298Z" fill-rule="nonzero"/><path fill="#fbbc04" clip-path="url(#id_0)" d="M220.99014 312.69757C220.99014 316.0113 218.30385 318.69757 214.99014 318.69757C211.67644 318.69757 208.99014 316.0113 208.99014 312.69757C208.99014 309.38385 211.67644 306.69757 214.99014 306.69757C218.30385 306.69757 220.99014 309.38385 220.99014 312.69757Z" fill-rule="nonzero"/><path fill="#fbbc04" clip-path="url(#id_0)" d="M289.41736 332.6247C289.41736 335.9384 286.73105 338.6247 283.41736 338.6247C280.10364 338.6247 277.41736 335.9384 277.41736 332.6247C277.41736 329.31097 280.10364 326.6247 283.41736 326.6247C286.73105 326.6247 289.41736 329.31097 289.41736 332.6247Z" fill-rule="nonzero"/><path fill="#fbbc04" clip-path="url(#id_0)" d="M292.4619 324.09692C292.4619 327.4106 289.77563 330.09692 286.4619 330.09692C283.14822 330.09692 280.4619 327.4106 280.4619 324.09692C280.4619 320.7832 283.14822 318.09692 286.4619 318.09692C289.77563 318.09692 292.4619 320.7832 292.4619 324.09692Z" fill-rule="nonzero"/><path fill="#fbbc04" clip-path="url(#id_0)" d="M354.26077 334.2025C354.26077 337.51624 351.5745 340.2025 348.26077 340.2025C344.94708 340.2025 342.26077 337.51624 342.26077 334.2025C342.26077 330.8888 344.94708 328.2025 348.26077 328.2025C351.5745 328.2025 354.26077 330.8888 354.26077 334.2025Z" fill-rule="nonzero"/><path fill="#fbbc04" clip-path="url(#id_0)" d="M427.23184 336.0492C427.23184 339.36288 424.54553 342.0492 421.23184 342.0492C417.91812 342.0492 415.23184 339.36288 415.23184 336.0492C415.23184 332.73547 417.91812 330.0492 421.23184 330.0492C424.54553 330.0492 427.23184 332.73547 427.23184 336.0492Z" fill-rule="nonzero"/><path fill="#fbbc04" clip-path="url(#id_0)" d="M590.8035 336.43393C590.8035 339.74765 588.11725 342.43393 584.8035 342.43393C581.4898 342.43393 578.8035 339.74765 578.8035 336.43393C578.8035 333.12024 581.4898 330.43393 584.8035 330.43393C588.11725 330.43393 590.8035 333.12024 590.8035 336.43393Z" fill-rule="nonzero"/><path fill="#34a853" clip-path="url(#id_0)" d="M117.310356 124.55712C117.310356 127.87083 114.62407 130.55711 111.310356 130.55711C107.99665 130.55711 105.310356 127.87083 105.310356 124.55712C105.310356 121.24341 107.99665 118.55712 111.310356 118.55712C114.62407 118.55712 117.310356 121.24341 117.310356 124.55712Z" fill-rule="nonzero"/><path fill="#000000" d="M446.10938 509.05L446.10938 501.47186L443.28125 501.47186L443.28125 500.45624L450.09375 500.45624L450.09375 501.47186L447.25 501.47186L447.25 509.05L446.10938 509.05ZM450.79688 501.675L450.79688 500.45624L451.85938 500.45624L451.85938 501.675L450.79688 501.675ZM450.79688 509.05L450.79688 502.83124L451.85938 502.83124L451.85938 509.05L450.79688 509.05ZM453.79688 509.05L453.79688 502.83124L454.73438 502.83124L454.73438 503.70624Q455.03125 503.2375 455.51562 502.97186Q456.0 502.6906 456.625 502.6906Q457.3125 502.6906 457.75 502.97186Q458.20312 503.2531 458.375 503.76874Q459.125 502.6906 460.29688 502.6906Q461.23438 502.6906 461.71875 503.20624Q462.21875 503.70624 462.21875 504.78436L462.21875 509.05L461.17188 509.05L461.17188 505.1281Q461.17188 504.5031 461.0625 504.22186Q460.96875 503.9406 460.70312 503.76874Q460.4375 503.59686 460.0625 503.59686Q459.40625 503.59686 458.96875 504.03436Q458.54688 504.47186 458.54688 505.4406L458.54688 509.05L457.48438 509.05L457.48438 505.0031Q457.48438 504.3 457.21875 503.95624Q456.96875 503.59686 456.39062 503.59686Q455.9375 503.59686 455.5625 503.83124Q455.1875 504.0656 455.01562 504.51874Q454.84375 504.97186 454.84375 505.8156L454.84375 509.05L453.79688 509.05ZM469.04688 507.05L470.14062 507.175Q469.89062 508.1281 469.1875 508.65936Q468.48438 509.1906 467.40625 509.1906Q466.04688 509.1906 465.23438 508.34686Q464.4375 507.5031 464.4375 505.9875Q464.4375 504.425 465.25 503.5656Q466.0625 502.6906 467.34375 502.6906Q468.59375 502.6906 469.375 503.53436Q470.17188 504.3781 470.17188 505.925Q470.17188 506.01874 470.17188 506.20624L465.53125 506.20624Q465.59375 507.2375 466.10938 507.78436Q466.625 508.3156 467.40625 508.3156Q467.98438 508.3156 468.39062 508.01874Q468.8125 507.70624 469.04688 507.05ZM465.59375 505.34686L469.0625 505.34686Q469.0 504.55 468.67188 504.15936Q468.15625 503.55 467.35938 503.55Q466.625 503.55 466.125 504.03436Q465.64062 504.51874 465.59375 505.34686ZM474.8125 511.4406L474.8125 500.45624L477.14062 500.45624L477.14062 501.33124L475.875 501.33124L475.875 510.5656L477.14062 510.5656L477.14062 511.4406L474.8125 511.4406ZM477.375 507.1906L478.40625 507.03436Q478.5 507.65936 478.89062 507.9875Q479.29688 508.3156 480.03125 508.3156Q480.75 508.3156 481.09375 508.03436Q481.45312 507.7375 481.45312 507.33124Q481.45312 506.97186 481.14062 506.76874Q480.92188 506.6281 480.0625 506.40936Q478.90625 506.1125 478.45312 505.90936Q478.01562 505.6906 477.78125 505.3156Q477.54688 504.9406 477.54688 504.47186Q477.54688 504.0656 477.73438 503.70624Q477.92188 503.34686 478.25 503.1125Q478.5 502.9406 478.92188 502.8156Q479.34375 502.6906 479.84375 502.6906Q480.5625 502.6906 481.10938 502.90936Q481.67188 503.1125 481.9375 503.47186Q482.20312 503.83124 482.29688 504.425L481.26562 504.5656Q481.20312 504.09686 480.85938 503.83124Q480.53125 503.55 479.90625 503.55Q479.1875 503.55 478.875 503.8Q478.5625 504.03436 478.5625 504.3625Q478.5625 504.5656 478.6875 504.72186Q478.82812 504.89374 479.09375 505.0031Q479.25 505.0656 480.03125 505.26874Q481.15625 505.58124 481.59375 505.76874Q482.03125 505.95624 482.28125 506.3156Q482.53125 506.675 482.53125 507.22186Q482.53125 507.7531 482.21875 508.22186Q481.92188 508.675 481.34375 508.9406Q480.76562 509.1906 480.03125 509.1906Q478.8125 509.1906 478.17188 508.6906Q477.54688 508.175 477.375 507.1906ZM486.5625 511.4406L484.23438 511.4406L484.23438 510.5656L485.5 510.5656L485.5 501.33124L484.23438 501.33124L484.23438 500.45624L486.5625 500.45624L486.5625 511.4406Z" fill-rule="nonzero"/><path fill="#000000" d="M35.184364 314.41977L35.090614 313.35727Q35.746864 313.27914 36.153114 312.9979Q36.559364 312.71664 36.82499 312.13852Q37.07499 311.54477 37.07499 310.8104Q37.07499 310.16977 36.88749 309.66977Q36.684364 309.16977 36.35624 308.9354Q36.01249 308.6854 35.621864 308.6854Q35.215614 308.6854 34.91874 308.91977Q34.60624 309.15414 34.403114 309.6854Q34.26249 310.04477 33.98124 311.23227Q33.69999 312.40414 33.44999 312.8729Q33.121864 313.4979 32.653114 313.79477Q32.16874 314.09164 31.574987 314.09164Q30.934362 314.09164 30.371862 313.73227Q29.793737 313.35727 29.512487 312.65414Q29.215612 311.9354 29.215612 311.07602Q29.215612 310.1229 29.528112 309.38852Q29.824987 308.65414 30.434362 308.26352Q31.028112 307.8729 31.778112 307.84164L31.856237 308.9354Q31.043737 309.02914 30.637487 309.54477Q30.215612 310.04477 30.215612 311.02914Q30.215612 312.0604 30.590612 312.52914Q30.965612 312.9979 31.496862 312.9979Q31.965612 312.9979 32.26249 312.66977Q32.559364 312.34164 32.871864 310.96664Q33.184364 309.57602 33.41874 309.0604Q33.778114 308.3104 34.309364 307.95102Q34.82499 307.59164 35.528114 307.59164Q36.215614 307.59164 36.82499 307.98227Q37.41874 308.3729 37.76249 309.10727Q38.090614 309.84164 38.090614 310.76352Q38.090614 311.9354 37.76249 312.73227Q37.41874 313.51352 36.73124 313.96664Q36.04374 314.40414 35.184364 314.41977ZM30.574987 306.16977L29.356237 306.16977L29.356237 305.10727L30.574987 305.10727L30.574987 306.16977ZM37.94999 306.16977L31.731237 306.16977L31.731237 305.10727L37.94999 305.10727L37.94999 306.16977ZM37.94999 303.73227L37.090614 303.73227L32.54374 299.76352Q32.57499 300.45102 32.57499 300.96664L32.57499 303.4979L31.731237 303.4979L31.731237 298.40414L32.41874 298.40414L36.371864 301.77914L37.090614 302.4354Q37.04374 301.71664 37.04374 301.10727L37.04374 298.21664L37.94999 298.21664L37.94999 303.73227ZM35.94999 293.91977L36.07499 292.82602Q37.028114 293.07602 37.559364 293.77914Q38.090614 294.48227 38.090614 295.5604Q38.090614 296.91977 37.246864 297.73227Q36.403114 298.52914 34.88749 298.52914Q33.32499 298.52914 32.465614 297.71664Q31.590612 296.90414 31.590612 295.6229Q31.590612 294.3729 32.434364 293.59164Q33.278114 292.79477 34.82499 292.79477Q34.91874 292.79477 35.10624 292.79477L35.10624 297.4354Q36.13749 297.3729 36.684364 296.85727Q37.215614 296.34164 37.215614 295.5604Q37.215614 294.98227 36.91874 294.57602Q36.60624 294.15414 35.94999 293.91977ZM34.246864 297.3729L34.246864 293.90414Q33.44999 293.96664 33.059364 294.29477Q32.44999 294.8104 32.44999 295.60727Q32.44999 296.34164 32.934364 296.84164Q33.41874 297.32602 34.246864 297.3729ZM40.340614 288.15414L29.356237 288.15414L29.356237 285.82602L30.231237 285.82602L30.231237 287.09164L39.465614 287.09164L39.465614 285.82602L40.340614 285.82602L40.340614 288.15414ZM37.94999 285.07602L29.356237 285.07602L29.356237 283.35727L35.434364 281.32602Q36.29374 281.04477 36.715614 280.91977Q36.246864 280.77914 35.340614 280.46664L29.356237 278.40414L29.356237 276.8729L37.94999 276.8729L37.94999 277.96664L30.762487 277.96664L37.94999 280.46664L37.94999 281.4979L30.637487 283.98227L37.94999 283.98227L37.94999 285.07602ZM37.94999 276.09164L29.356237 276.09164L29.356237 272.85727Q29.356237 271.8729 29.621862 271.27914Q29.887487 270.6854 30.434362 270.35727Q30.965612 270.01352 31.559362 270.01352Q32.10624 270.01352 32.590614 270.3104Q33.07499 270.60727 33.371864 271.21664Q33.60624 270.4354 34.16874 270.02914Q34.715614 269.60727 35.465614 269.60727Q36.059364 269.60727 36.590614 269.85727Q37.10624 270.10727 37.38749 270.48227Q37.66874 270.85727 37.809364 271.4354Q37.94999 271.9979 37.94999 272.8104L37.94999 276.09164ZM32.965614 274.95102L32.965614 273.09164Q32.965614 272.34164 32.871864 272.01352Q32.746864 271.57602 32.44999 271.35727Q32.13749 271.13852 31.684362 271.13852Q31.262487 271.13852 30.934362 271.34164Q30.606237 271.54477 30.496862 271.9354Q30.371862 272.3104 30.371862 273.23227L30.371862 274.95102L32.965614 274.95102ZM36.934364 274.95102L36.934364 272.8104Q36.934364 272.26352 36.88749 272.04477Q36.82499 271.63852 36.66874 271.38852Q36.496864 271.1229 36.184364 270.95102Q35.871864 270.77914 35.465614 270.77914Q34.98124 270.77914 34.621864 271.02914Q34.26249 271.26352 34.121864 271.70102Q33.98124 272.13852 33.98124 272.96664L33.98124 274.95102L36.934364 274.95102ZM40.340614 266.40414L40.340614 268.73227L39.465614 268.73227L39.465614 267.46664L30.231237 267.46664L30.231237 268.73227L29.356237 268.73227L29.356237 266.40414L40.340614 266.40414Z" fill-rule="nonzero"/><path fill="#000000" d="M71.99687 463.03436L71.99687 464.05L66.30937 464.05Q66.30937 463.675 66.43437 463.3156Q66.65312 462.7375 67.12187 462.175Q67.60625 461.6125 68.5125 460.8781Q69.91875 459.72186 70.40312 459.05Q70.90312 458.3781 70.90312 457.78436Q70.90312 457.15936 70.45 456.7375Q69.99687 456.3 69.27812 456.3Q68.5125 456.3 68.05937 456.7531Q67.60625 457.20624 67.59062 458.01874L66.5125 457.90936Q66.62187 456.6906 67.34062 456.0656Q68.075 455.425 69.30937 455.425Q70.54375 455.425 71.2625 456.1125Q71.98125 456.8 71.98125 457.8156Q71.98125 458.33124 71.7625 458.83124Q71.55937 459.3156 71.05937 459.8781Q70.575 460.425 69.45 461.3781Q68.49687 462.175 68.21562 462.47186Q67.95 462.7531 67.77812 463.03436L71.99687 463.03436ZM73.45 461.8L74.55937 461.70624Q74.68437 462.51874 75.12187 462.925Q75.575 463.33124 76.21562 463.33124Q76.96562 463.33124 77.49687 462.7531Q78.02812 462.175 78.02812 461.2375Q78.02812 460.33124 77.5125 459.8156Q77.0125 459.28436 76.18437 459.28436Q75.68437 459.28436 75.2625 459.51874Q74.85625 459.7531 74.62187 460.1125L73.6375 459.9875L74.46562 455.58124L78.74687 455.58124L78.74687 456.58124L75.30937 456.58124L74.85625 458.89374Q75.62187 458.34686 76.46562 458.34686Q77.59062 458.34686 78.35625 459.1281Q79.1375 459.90936 79.1375 461.14374Q79.1375 462.3 78.46562 463.15936Q77.6375 464.1906 76.21562 464.1906Q75.04375 464.1906 74.29375 463.53436Q73.55937 462.8781 73.45 461.8Z" fill-rule="nonzero"/><path fill="#000000" d="M66.45 429.76923L67.5125 429.6286Q67.68437 430.51923 68.12187 430.92548Q68.55937 431.3161 69.18437 431.3161Q69.93437 431.3161 70.45 430.80048Q70.96562 430.28485 70.96562 429.51923Q70.96562 428.80048 70.48125 428.33173Q70.0125 427.84735 69.27812 427.84735Q68.98125 427.84735 68.52812 427.97235L68.65312 427.03485Q68.7625 427.05048 68.825 427.05048Q69.49687 427.05048 70.02812 426.70673Q70.575 426.34735 70.575 425.61298Q70.575 425.03485 70.18437 424.65985Q69.79375 424.26923 69.16875 424.26923Q68.55937 424.26923 68.1375 424.65985Q67.73125 425.05048 67.62187 425.8161L66.55937 425.6286Q66.74687 424.58173 67.43437 424.0036Q68.12187 423.40985 69.1375 423.40985Q69.84062 423.40985 70.43437 423.72235Q71.02812 424.01923 71.34062 424.53485Q71.65312 425.05048 71.65312 425.64423Q71.65312 426.1911 71.35625 426.65985Q71.05937 427.11298 70.48125 427.3786Q71.23125 427.55048 71.65312 428.11298Q72.075 428.65985 72.075 429.5036Q72.075 430.6286 71.24687 431.40985Q70.43437 432.1911 69.18437 432.1911Q68.05937 432.1911 67.30937 431.51923Q66.55937 430.83173 66.45 429.76923ZM73.45 427.80048Q73.45 426.26923 73.7625 425.34735Q74.075 424.40985 74.68437 423.90985Q75.30937 423.40985 76.24687 423.40985Q76.93437 423.40985 77.45 423.6911Q77.98125 423.97235 78.325 424.5036Q78.66875 425.01923 78.85625 425.76923Q79.04375 426.51923 79.04375 427.80048Q79.04375 429.3161 78.73125 430.23798Q78.43437 431.15985 77.80937 431.67548Q77.2 432.17548 76.24687 432.17548Q75.0125 432.17548 74.29375 431.28485Q73.45 430.22235 73.45 427.80048ZM74.52812 427.80048Q74.52812 429.90985 75.02812 430.61298Q75.52812 431.3161 76.24687 431.3161Q76.98125 431.3161 77.46562 430.61298Q77.96562 429.90985 77.96562 427.80048Q77.96562 425.67548 77.46562 424.98798Q76.98125 424.28485 76.23125 424.28485Q75.5125 424.28485 75.075 424.89423Q74.52812 425.67548 74.52812 427.80048Z" fill-rule="nonzero"/><path fill="#000000" d="M66.45 397.75406L67.5125 397.61343Q67.68437 398.50406 68.12187 398.9103Q68.55937 399.30093 69.18437 399.30093Q69.93437 399.30093 70.45 398.7853Q70.96562 398.26968 70.96562 397.50406Q70.96562 396.7853 70.48125 396.31656Q70.0125 395.83218 69.27812 395.83218Q68.98125 395.83218 68.52812 395.95718L68.65312 395.01968Q68.7625 395.0353 68.825 395.0353Q69.49687 395.0353 70.02812 394.69156Q70.575 394.33218 70.575 393.5978Q70.575 393.01968 70.18437 392.64468Q69.79375 392.25406 69.16875 392.25406Q68.55937 392.25406 68.1375 392.64468Q67.73125 393.0353 67.62187 393.80093L66.55937 393.61343Q66.74687 392.56656 67.43437 391.98843Q68.12187 391.39468 69.1375 391.39468Q69.84062 391.39468 70.43437 391.70718Q71.02812 392.00406 71.34062 392.51968Q71.65312 393.0353 71.65312 393.62906Q71.65312 394.17593 71.35625 394.64468Q71.05937 395.0978 70.48125 395.36343Q71.23125 395.5353 71.65312 396.0978Q72.075 396.64468 72.075 397.48843Q72.075 398.61343 71.24687 399.39468Q70.43437 400.17593 69.18437 400.17593Q68.05937 400.17593 67.30937 399.50406Q66.55937 398.81656 66.45 397.75406ZM73.45 397.76968L74.55937 397.67593Q74.68437 398.48843 75.12187 398.89468Q75.575 399.30093 76.21562 399.30093Q76.96562 399.30093 77.49687 398.7228Q78.02812 398.14468 78.02812 397.20718Q78.02812 396.30093 77.5125 395.7853Q77.0125 395.25406 76.18437 395.25406Q75.68437 395.25406 75.2625 395.48843Q74.85625 395.7228 74.62187 396.08218L73.6375 395.95718L74.46562 391.55093L78.74687 391.55093L78.74687 392.55093L75.30937 392.55093L74.85625 394.86343Q75.62187 394.31656 76.46562 394.31656Q77.59062 394.31656 78.35625 395.0978Q79.1375 395.87906 79.1375 397.11343Q79.1375 398.26968 78.46562 399.12906Q77.6375 400.1603 76.21562 400.1603Q75.04375 400.1603 74.29375 399.50406Q73.55937 398.8478 73.45 397.76968Z" fill-rule="nonzero"/><path fill="#000000" d="M69.825 368.00455L69.825 365.94205L66.10625 365.94205L66.10625 364.9733L70.02812 359.4108L70.8875 359.4108L70.8875 364.9733L72.04375 364.9733L72.04375 365.94205L70.8875 365.94205L70.8875 368.00455L69.825 368.00455ZM69.825 364.9733L69.825 361.11392L67.1375 364.9733L69.825 364.9733ZM73.45 363.77017Q73.45 362.23892 73.7625 361.31705Q74.075 360.37955 74.68437 359.87955Q75.30937 359.37955 76.24687 359.37955Q76.93437 359.37955 77.45 359.6608Q77.98125 359.94205 78.325 360.4733Q78.66875 360.98892 78.85625 361.73892Q79.04375 362.48892 79.04375 363.77017Q79.04375 365.2858 78.73125 366.20767Q78.43437 367.12955 77.80937 367.64517Q77.2 368.14517 76.24687 368.14517Q75.0125 368.14517 74.29375 367.25455Q73.45 366.19205 73.45 363.77017ZM74.52812 363.77017Q74.52812 365.87955 75.02812 366.58267Q75.52812 367.2858 76.24687 367.2858Q76.98125 367.2858 77.46562 366.58267Q77.96562 365.87955 77.96562 363.77017Q77.96562 361.64517 77.46562 360.95767Q76.98125 360.25455 76.23125 360.25455Q75.5125 360.25455 75.075 360.86392Q74.52812 361.64517 74.52812 363.77017Z" fill-rule="nonzero"/><path fill="#000000" d="M69.825 335.98938L69.825 333.92688L66.10625 333.92688L66.10625 332.95813L70.02812 327.39563L70.8875 327.39563L70.8875 332.95813L72.04375 332.95813L72.04375 333.92688L70.8875 333.92688L70.8875 335.98938L69.825 335.98938ZM69.825 332.95813L69.825 329.09875L67.1375 332.95813L69.825 332.95813ZM73.45 333.73938L74.55937 333.64563Q74.68437 334.45813 75.12187 334.86438Q75.575 335.27063 76.21562 335.27063Q76.96562 335.27063 77.49687 334.6925Q78.02812 334.11438 78.02812 333.17688Q78.02812 332.27063 77.5125 331.755Q77.0125 331.22375 76.18437 331.22375Q75.68437 331.22375 75.2625 331.45813Q74.85625 331.6925 74.62187 332.05188L73.6375 331.92688L74.46562 327.52063L78.74687 327.52063L78.74687 328.52063L75.30937 328.52063L74.85625 330.83313Q75.62187 330.28625 76.46562 330.28625Q77.59062 330.28625 78.35625 331.0675Q79.1375 331.84875 79.1375 333.08313Q79.1375 334.23938 78.46562 335.09875Q77.6375 336.13 76.21562 336.13Q75.04375 336.13 74.29375 335.47375Q73.55937 334.8175 73.45 333.73938Z" fill-rule="nonzero"/><path fill="#000000" d="M66.45 301.72424L67.55937 301.6305Q67.68437 302.443 68.12187 302.84924Q68.575 303.2555 69.21562 303.2555Q69.96562 303.2555 70.49687 302.67737Q71.02812 302.09924 71.02812 301.16174Q71.02812 300.2555 70.5125 299.73987Q70.0125 299.20862 69.18437 299.20862Q68.68437 299.20862 68.2625 299.443Q67.85625 299.67737 67.62187 300.03674L66.6375 299.91174L67.46562 295.5055L71.74687 295.5055L71.74687 296.5055L68.30937 296.5055L67.85625 298.818Q68.62187 298.27112 69.46562 298.27112Q70.59062 298.27112 71.35625 299.05237Q72.1375 299.83362 72.1375 301.068Q72.1375 302.22424 71.46562 303.08362Q70.6375 304.11487 69.21562 304.11487Q68.04375 304.11487 67.29375 303.45862Q66.55937 302.80237 66.45 301.72424ZM73.45 299.73987Q73.45 298.20862 73.7625 297.28674Q74.075 296.34924 74.68437 295.84924Q75.30937 295.34924 76.24687 295.34924Q76.93437 295.34924 77.45 295.6305Q77.98125 295.91174 78.325 296.443Q78.66875 296.95862 78.85625 297.70862Q79.04375 298.45862 79.04375 299.73987Q79.04375 301.2555 78.73125 302.17737Q78.43437 303.09924 77.80937 303.61487Q77.2 304.11487 76.24687 304.11487Q75.0125 304.11487 74.29375 303.22424Q73.45 302.16174 73.45 299.73987ZM74.52812 299.73987Q74.52812 301.84924 75.02812 302.55237Q75.52812 303.2555 76.24687 303.2555Q76.98125 303.2555 77.46562 302.55237Q77.96562 301.84924 77.96562 299.73987Q77.96562 297.61487 77.46562 296.92737Q76.98125 296.22424 76.23125 296.22424Q75.5125 296.22424 75.075 296.83362Q74.52812 297.61487 74.52812 299.73987Z" fill-rule="nonzero"/><path fill="#000000" d="M66.45 269.70908L67.55937 269.61533Q67.68437 270.42783 68.12187 270.83408Q68.575 271.24033 69.21562 271.24033Q69.96562 271.24033 70.49687 270.6622Q71.02812 270.08408 71.02812 269.14658Q71.02812 268.24033 70.5125 267.7247Q70.0125 267.19345 69.18437 267.19345Q68.68437 267.19345 68.2625 267.42783Q67.85625 267.6622 67.62187 268.02158L66.6375 267.89658L67.46562 263.49033L71.74687 263.49033L71.74687 264.49033L68.30937 264.49033L67.85625 266.80283Q68.62187 266.25595 69.46562 266.25595Q70.59062 266.25595 71.35625 267.0372Q72.1375 267.81845 72.1375 269.05283Q72.1375 270.20908 71.46562 271.06845Q70.6375 272.0997 69.21562 272.0997Q68.04375 272.0997 67.29375 271.44345Q66.55937 270.7872 66.45 269.70908ZM73.45 269.70908L74.55937 269.61533Q74.68437 270.42783 75.12187 270.83408Q75.575 271.24033 76.21562 271.24033Q76.96562 271.24033 77.49687 270.6622Q78.02812 270.08408 78.02812 269.14658Q78.02812 268.24033 77.5125 267.7247Q77.0125 267.19345 76.18437 267.19345Q75.68437 267.19345 75.2625 267.42783Q74.85625 267.6622 74.62187 268.02158L73.6375 267.89658L74.46562 263.49033L78.74687 263.49033L78.74687 264.49033L75.30937 264.49033L74.85625 266.80283Q75.62187 266.25595 76.46562 266.25595Q77.59062 266.25595 78.35625 267.0372Q79.1375 267.81845 79.1375 269.05283Q79.1375 270.20908 78.46562 271.06845Q77.6375 272.0997 76.21562 272.0997Q75.04375 272.0997 74.29375 271.44345Q73.55937 270.7872 73.45 269.70908Z" fill-rule="nonzero"/><path fill="#000000" d="M71.91875 233.45956L70.87187 233.53769Q70.73125 232.91269 70.48125 232.63144Q70.04375 232.17831 69.41875 232.17831Q68.91875 232.17831 68.52812 232.45956Q68.04375 232.83456 67.74687 233.53769Q67.46562 234.22519 67.45 235.50644Q67.825 234.92831 68.37187 234.64706Q68.93437 234.36581 69.54375 234.36581Q70.59062 234.36581 71.325 235.14706Q72.075 235.92831 72.075 237.14706Q72.075 237.95956 71.71562 238.66269Q71.37187 239.35019 70.7625 239.72519Q70.15312 240.08456 69.3875 240.08456Q68.05937 240.08456 67.23125 239.11581Q66.40312 238.14706 66.40312 235.92831Q66.40312 233.42831 67.325 232.30331Q68.12187 231.31894 69.48125 231.31894Q70.49687 231.31894 71.1375 231.89706Q71.79375 232.45956 71.91875 233.45956ZM67.62187 237.16269Q67.62187 237.70956 67.84062 238.20956Q68.075 238.69394 68.48125 238.95956Q68.90312 239.22519 69.37187 239.22519Q70.02812 239.22519 70.5125 238.69394Q70.99687 238.14706 70.99687 237.22519Q70.99687 236.33456 70.5125 235.81894Q70.04375 235.30331 69.325 235.30331Q68.60625 235.30331 68.10625 235.81894Q67.62187 236.33456 67.62187 237.16269ZM73.45 235.70956Q73.45 234.17831 73.7625 233.25644Q74.075 232.31894 74.68437 231.81894Q75.30937 231.31894 76.24687 231.31894Q76.93437 231.31894 77.45 231.60019Q77.98125 231.88144 78.325 232.41269Q78.66875 232.92831 78.85625 233.67831Q79.04375 234.42831 79.04375 235.70956Q79.04375 237.22519 78.73125 238.14706Q78.43437 239.06894 77.80937 239.58456Q77.2 240.08456 76.24687 240.08456Q75.0125 240.08456 74.29375 239.19394Q73.45 238.13144 73.45 235.70956ZM74.52812 235.70956Q74.52812 237.81894 75.02812 238.52206Q75.52812 239.22519 76.24687 239.22519Q76.98125 239.22519 77.46562 238.52206Q77.96562 237.81894 77.96562 235.70956Q77.96562 233.58456 77.46562 232.89706Q76.98125 232.19394 76.23125 232.19394Q75.5125 232.19394 75.075 232.80331Q74.52812 233.58456 74.52812 235.70956Z" fill-rule="nonzero"/><path fill="#000000" d="M71.91875 201.44441L70.87187 201.52254Q70.73125 200.89754 70.48125 200.61629Q70.04375 200.16316 69.41875 200.16316Q68.91875 200.16316 68.52812 200.44441Q68.04375 200.81941 67.74687 201.52254Q67.46562 202.21004 67.45 203.49129Q67.825 202.91316 68.37187 202.63191Q68.93437 202.35066 69.54375 202.35066Q70.59062 202.35066 71.325 203.13191Q72.075 203.91316 72.075 205.13191Q72.075 205.94441 71.71562 206.64754Q71.37187 207.33504 70.7625 207.71004Q70.15312 208.06941 69.3875 208.06941Q68.05937 208.06941 67.23125 207.10066Q66.40312 206.13191 66.40312 203.91316Q66.40312 201.41316 67.325 200.28816Q68.12187 199.30379 69.48125 199.30379Q70.49687 199.30379 71.1375 199.88191Q71.79375 200.44441 71.91875 201.44441ZM67.62187 205.14754Q67.62187 205.69441 67.84062 206.19441Q68.075 206.67879 68.48125 206.94441Q68.90312 207.21004 69.37187 207.21004Q70.02812 207.21004 70.5125 206.67879Q70.99687 206.13191 70.99687 205.21004Q70.99687 204.31941 70.5125 203.80379Q70.04375 203.28816 69.325 203.28816Q68.60625 203.28816 68.10625 203.80379Q67.62187 204.31941 67.62187 205.14754ZM73.45 205.67879L74.55937 205.58504Q74.68437 206.39754 75.12187 206.80379Q75.575 207.21004 76.21562 207.21004Q76.96562 207.21004 77.49687 206.63191Q78.02812 206.05379 78.02812 205.11629Q78.02812 204.21004 77.5125 203.69441Q77.0125 203.16316 76.18437 203.16316Q75.68437 203.16316 75.2625 203.39754Q74.85625 203.63191 74.62187 203.99129L73.6375 203.86629L74.46562 199.46004L78.74687 199.46004L78.74687 200.46004L75.30937 200.46004L74.85625 202.77254Q75.62187 202.22566 76.46562 202.22566Q77.59062 202.22566 78.35625 203.00691Q79.1375 203.78816 79.1375 205.02254Q79.1375 206.17879 78.46562 207.03816Q77.6375 208.06941 76.21562 208.06941Q75.04375 208.06941 74.29375 207.41316Q73.55937 206.75691 73.45 205.67879Z" fill-rule="nonzero"/><path fill="#000000" d="M66.5125 168.44489L66.5125 167.42926L72.075 167.42926L72.075 168.25739Q71.2625 169.13239 70.45 170.58551Q69.65312 172.02301 69.21562 173.55426Q68.8875 174.63239 68.80937 175.91364L67.71562 175.91364Q67.73125 174.89801 68.10625 173.46051Q68.49687 172.02301 69.2 170.69489Q69.91875 169.36676 70.73125 168.44489L66.5125 168.44489ZM73.45 171.67926Q73.45 170.14801 73.7625 169.22614Q74.075 168.28864 74.68437 167.78864Q75.30937 167.28864 76.24687 167.28864Q76.93437 167.28864 77.45 167.56989Q77.98125 167.85114 78.325 168.38239Q78.66875 168.89801 78.85625 169.64801Q79.04375 170.39801 79.04375 171.67926Q79.04375 173.19489 78.73125 174.11676Q78.43437 175.03864 77.80937 175.55426Q77.2 176.05426 76.24687 176.05426Q75.0125 176.05426 74.29375 175.16364Q73.45 174.10114 73.45 171.67926ZM74.52812 171.67926Q74.52812 173.78864 75.02812 174.49176Q75.52812 175.19489 76.24687 175.19489Q76.98125 175.19489 77.46562 174.49176Q77.96562 173.78864 77.96562 171.67926Q77.96562 169.55426 77.46562 168.86676Q76.98125 168.16364 76.23125 168.16364Q75.5125 168.16364 75.075 168.77301Q74.52812 169.55426 74.52812 171.67926Z" fill-rule="nonzero"/><path fill="#000000" d="M66.5125 136.42973L66.5125 135.41411L72.075 135.41411L72.075 136.24223Q71.2625 137.11723 70.45 138.57036Q69.65312 140.00786 69.21562 141.53911Q68.8875 142.61723 68.80937 143.89848L67.71562 143.89848Q67.73125 142.88286 68.10625 141.44536Q68.49687 140.00786 69.2 138.67973Q69.91875 137.35161 70.73125 136.42973L66.5125 136.42973ZM73.45 141.64848L74.55937 141.55473Q74.68437 142.36723 75.12187 142.77348Q75.575 143.17973 76.21562 143.17973Q76.96562 143.17973 77.49687 142.60161Q78.02812 142.02348 78.02812 141.08598Q78.02812 140.17973 77.5125 139.66411Q77.0125 139.13286 76.18437 139.13286Q75.68437 139.13286 75.2625 139.36723Q74.85625 139.60161 74.62187 139.96098L73.6375 139.83598L74.46562 135.42973L78.74687 135.42973L78.74687 136.42973L75.30937 136.42973L74.85625 138.74223Q75.62187 138.19536 76.46562 138.19536Q77.59062 138.19536 78.35625 138.97661Q79.1375 139.75786 79.1375 140.99223Q79.1375 142.14848 78.46562 143.00786Q77.6375 144.03911 76.21562 144.03911Q75.04375 144.03911 74.29375 143.38286Q73.55937 142.72661 73.45 141.64848Z" fill-rule="nonzero"/><path fill="#000000" d="M68.075 107.22708Q67.41875 106.97708 67.09062 106.53958Q66.77812 106.08646 66.77812 105.47708Q66.77812 104.53958 67.45 103.89896Q68.1375 103.25833 69.24687 103.25833Q70.37187 103.25833 71.05937 103.91458Q71.74687 104.57083 71.74687 105.50833Q71.74687 106.10208 71.43437 106.53958Q71.12187 106.97708 70.48125 107.22708Q71.27812 107.47708 71.68437 108.05521Q72.09062 108.63333 72.09062 109.43021Q72.09062 110.52396 71.30937 111.27396Q70.54375 112.02396 69.2625 112.02396Q67.99687 112.02396 67.21562 111.27396Q66.43437 110.52396 66.43437 109.39896Q66.43437 108.55521 66.85625 107.99271Q67.29375 107.43021 68.075 107.22708ZM67.85625 105.43021Q67.85625 106.03958 68.24687 106.43021Q68.65312 106.82083 69.27812 106.82083Q69.8875 106.82083 70.27812 106.44583Q70.66875 106.05521 70.66875 105.49271Q70.66875 104.91458 70.2625 104.52396Q69.85625 104.11771 69.2625 104.11771Q68.65312 104.11771 68.24687 104.50833Q67.85625 104.89896 67.85625 105.43021ZM67.52812 109.39896Q67.52812 109.85208 67.73125 110.27396Q67.95 110.69583 68.37187 110.93021Q68.79375 111.16458 69.27812 111.16458Q70.02812 111.16458 70.5125 110.68021Q71.0125 110.19583 71.0125 109.44583Q71.0125 108.68021 70.5125 108.18021Q70.0125 107.68021 69.24687 107.68021Q68.49687 107.68021 68.0125 108.18021Q67.52812 108.66458 67.52812 109.39896ZM73.45 107.64896Q73.45 106.11771 73.7625 105.19583Q74.075 104.25833 74.68437 103.75833Q75.30937 103.25833 76.24687 103.25833Q76.93437 103.25833 77.45 103.53958Q77.98125 103.82083 78.325 104.35208Q78.66875 104.86771 78.85625 105.61771Q79.04375 106.36771 79.04375 107.64896Q79.04375 109.16458 78.73125 110.08646Q78.43437 111.00833 77.80937 111.52396Q77.2 112.02396 76.24687 112.02396Q75.0125 112.02396 74.29375 111.13333Q73.45 110.07083 73.45 107.64896ZM74.52812 107.64896Q74.52812 109.75833 75.02812 110.46146Q75.52812 111.16458 76.24687 111.16458Q76.98125 111.16458 77.46562 110.46146Q77.96562 109.75833 77.96562 107.64896Q77.96562 105.52396 77.46562 104.83646Q76.98125 104.13333 76.23125 104.13333Q75.5125 104.13333 75.075 104.74271Q74.52812 105.52396 74.52812 107.64896Z" fill-rule="nonzero"/><path fill="#000000" d="M135.4191 476.03436L135.4191 477.05L129.7316 477.05Q129.7316 476.675 129.8566 476.3156Q130.07535 475.7375 130.5441 475.175Q131.02847 474.6125 131.93472 473.8781Q133.34097 472.72186 133.82535 472.05Q134.32535 471.3781 134.32535 470.78436Q134.32535 470.15936 133.87222 469.7375Q133.4191 469.3 132.70035 469.3Q131.93472 469.3 131.4816 469.7531Q131.02847 470.20624 131.01285 471.01874L129.93472 470.90936Q130.0441 469.6906 130.76285 469.0656Q131.49722 468.425 132.7316 468.425Q133.96597 468.425 134.68472 469.1125Q135.40347 469.8 135.40347 470.8156Q135.40347 471.33124 135.18472 471.83124Q134.9816 472.3156 134.4816 472.8781Q133.99722 473.425 132.87222 474.3781Q131.9191 475.175 131.63785 475.47186Q131.37222 475.7531 131.20035 476.03436L135.4191 476.03436Z" fill-rule="nonzero"/><path fill="#000000" d="M264.76215 477.05L264.76215 474.9875L261.0434 474.9875L261.0434 474.01874L264.96527 468.45624L265.82465 468.45624L265.82465 474.01874L266.9809 474.01874L266.9809 474.9875L265.82465 474.9875L265.82465 477.05L264.76215 477.05ZM264.76215 474.01874L264.76215 470.15936L262.07465 474.01874L264.76215 474.01874Z" fill-rule="nonzero"/><path fill="#000000" d="M398.37082 470.5656L397.32394 470.64374Q397.18332 470.01874 396.93332 469.7375Q396.49582 469.28436 395.87082 469.28436Q395.37082 469.28436 394.9802 469.5656Q394.49582 469.9406 394.19894 470.64374Q393.9177 471.33124 393.90207 472.6125Q394.27707 472.03436 394.82394 471.7531Q395.38644 471.47186 395.99582 471.47186Q397.0427 471.47186 397.77707 472.2531Q398.52707 473.03436 398.52707 474.2531Q398.52707 475.0656 398.1677 475.76874Q397.82394 476.45624 397.21457 476.83124Q396.6052 477.1906 395.83957 477.1906Q394.51144 477.1906 393.68332 476.22186Q392.8552 475.2531 392.8552 473.03436Q392.8552 470.53436 393.77707 469.40936Q394.57394 468.425 395.93332 468.425Q396.94894 468.425 397.58957 469.0031Q398.24582 469.5656 398.37082 470.5656ZM394.07394 474.26874Q394.07394 474.8156 394.2927 475.3156Q394.52707 475.8 394.93332 476.0656Q395.3552 476.33124 395.82394 476.33124Q396.4802 476.33124 396.96457 475.8Q397.44894 475.2531 397.44894 474.33124Q397.44894 473.4406 396.96457 472.925Q396.49582 472.40936 395.77707 472.40936Q395.05832 472.40936 394.55832 472.925Q394.07394 473.4406 394.07394 474.26874Z" fill-rule="nonzero"/><path fill="#000000" d="M526.042 472.39374Q525.38574 472.14374 525.0576 471.70624Q524.7451 471.2531 524.7451 470.64374Q524.7451 469.70624 525.417 469.0656Q526.1045 468.425 527.21387 468.425Q528.33887 468.425 529.02637 469.08124Q529.71387 469.7375 529.71387 470.675Q529.71387 471.26874 529.40137 471.70624Q529.08887 472.14374 528.44824 472.39374Q529.2451 472.64374 529.65137 473.22186Q530.0576 473.8 530.0576 474.59686Q530.0576 475.6906 529.27637 476.4406Q528.51074 477.1906 527.2295 477.1906Q525.96387 477.1906 525.1826 476.4406Q524.40137 475.6906 524.40137 474.5656Q524.40137 473.72186 524.82324 473.15936Q525.26074 472.59686 526.042 472.39374ZM525.82324 470.59686Q525.82324 471.20624 526.21387 471.59686Q526.6201 471.9875 527.2451 471.9875Q527.8545 471.9875 528.2451 471.6125Q528.63574 471.22186 528.63574 470.65936Q528.63574 470.08124 528.2295 469.6906Q527.82324 469.28436 527.2295 469.28436Q526.6201 469.28436 526.21387 469.675Q525.82324 470.0656 525.82324 470.59686ZM525.4951 474.5656Q525.4951 475.01874 525.69824 475.4406Q525.917 475.8625 526.33887 476.09686Q526.76074 476.33124 527.2451 476.33124Q527.9951 476.33124 528.4795 475.84686Q528.9795 475.3625 528.9795 474.6125Q528.9795 473.84686 528.4795 473.34686Q527.9795 472.84686 527.21387 472.84686Q526.46387 472.84686 525.9795 473.34686Q525.4951 473.83124 525.4951 474.5656Z" fill-rule="nonzero"/><path fill="#000000" d="M656.40063 477.05L655.35376 477.05L655.35376 470.33124Q654.96313 470.6906 654.33813 471.0656Q653.72876 471.425 653.2444 471.59686L653.2444 470.58124Q654.1194 470.15936 654.77563 469.58124Q655.4475 468.9875 655.72876 468.425L656.40063 468.425L656.40063 477.05ZM659.4319 472.8156Q659.4319 471.28436 659.7444 470.3625Q660.0569 469.425 660.66626 468.925Q661.29126 468.425 662.22876 468.425Q662.91626 468.425 663.4319 468.70624Q663.96313 468.9875 664.3069 469.51874Q664.65063 470.03436 664.83813 470.78436Q665.02563 471.53436 665.02563 472.8156Q665.02563 474.33124 664.71313 475.2531Q664.41626 476.175 663.79126 476.6906Q663.1819 477.1906 662.22876 477.1906Q660.9944 477.1906 660.27563 476.3Q659.4319 475.2375 659.4319 472.8156ZM660.51 472.8156Q660.51 474.925 661.01 475.6281Q661.51 476.33124 662.22876 476.33124Q662.96313 476.33124 663.4475 475.6281Q663.9475 474.925 663.9475 472.8156Q663.9475 470.6906 663.4475 470.0031Q662.96313 469.3 662.21313 469.3Q661.4944 469.3 661.0569 469.90936Q660.51 470.6906 660.51 472.8156Z" fill-rule="nonzero"/><path fill="#000000" d="M787.9156 477.05L786.8687 477.05L786.8687 470.33124Q786.4781 470.6906 785.8531 471.0656Q785.2437 471.425 784.75934 471.59686L784.75934 470.58124Q785.63434 470.15936 786.2906 469.58124Q786.96246 468.9875 787.2437 468.425L787.9156 468.425L787.9156 477.05ZM796.4937 476.03436L796.4937 477.05L790.8062 477.05Q790.8062 476.675 790.9312 476.3156Q791.14996 475.7375 791.6187 475.175Q792.1031 474.6125 793.00934 473.8781Q794.4156 472.72186 794.89996 472.05Q795.39996 471.3781 795.39996 470.78436Q795.39996 470.15936 794.94684 469.7375Q794.4937 469.3 793.77496 469.3Q793.00934 469.3 792.5562 469.7531Q792.1031 470.20624 792.08746 471.01874L791.00934 470.90936Q791.1187 469.6906 791.83746 469.0656Q792.57184 468.425 793.8062 468.425Q795.0406 468.425 795.75934 469.1125Q796.4781 469.8 796.4781 470.8156Q796.4781 471.33124 796.25934 471.83124Q796.0562 472.3156 795.5562 472.8781Q795.07184 473.425 793.94684 474.3781Q792.9937 475.175 792.71246 475.47186Q792.44684 475.7531 792.27496 476.03436L796.4937 476.03436Z" fill-rule="nonzero"/><path fill="#4285f4" d="M328.0 75.916664C328.0 79.23038 325.31372 81.916664 322.0 81.916664C318.68628 81.916664 316.0 79.23038 316.0 75.916664C316.0 72.60296 318.68628 69.916664 322.0 69.916664C325.31372 69.916664 328.0 72.60296 328.0 75.916664Z" fill-rule="nonzero"/><path fill="#1a1a1a" d="M336.23438 79.916664L336.23438 79.05729L340.20312 74.510414Q339.51562 74.541664 339.0 74.541664L336.46875 74.541664L336.46875 73.697914L341.5625 73.697914L341.5625 74.385414L338.1875 78.33854L337.53125 79.05729Q338.25 79.010414 338.85938 79.010414L341.75 79.010414L341.75 79.916664L336.23438 79.916664ZM341.375 78.05729L342.40625 77.90104Q342.5 78.52604 342.89062 78.854164Q343.29688 79.18229 344.03125 79.18229Q344.75 79.18229 345.09375 78.90104Q345.45312 78.604164 345.45312 78.197914Q345.45312 77.83854 345.14062 77.635414Q344.92188 77.49479 344.0625 77.27604Q342.90625 76.979164 342.45312 76.77604Q342.01562 76.55729 341.78125 76.18229Q341.54688 75.80729 341.54688 75.33854Q341.54688 74.93229 341.73438 74.572914Q341.92188 74.21354 342.25 73.979164Q342.5 73.80729 342.92188 73.68229Q343.34375 73.55729 343.84375 73.55729Q344.5625 73.55729 345.10938 73.77604Q345.67188 73.979164 345.9375 74.33854Q346.20312 74.697914 346.29688 75.291664L345.26562 75.43229Q345.20312 74.96354 344.85938 74.697914Q344.53125 74.416664 343.90625 74.416664Q343.1875 74.416664 342.875 74.666664Q342.5625 74.90104 342.5625 75.229164Q342.5625 75.43229 342.6875 75.58854Q342.82812 75.760414 343.09375 75.86979Q343.25 75.93229 344.03125 76.135414Q345.15625 76.447914 345.59375 76.635414Q346.03125 76.822914 346.28125 77.18229Q346.53125 77.541664 346.53125 78.08854Q346.53125 78.61979 346.21875 79.08854Q345.92188 79.541664 345.34375 79.80729Q344.76562 80.05729 344.03125 80.05729Q342.8125 80.05729 342.17188 79.55729Q341.54688 79.041664 341.375 78.05729ZM351.09375 78.979164L351.25 79.90104Q350.79688 79.99479 350.45312 79.99479Q349.875 79.99479 349.5625 79.822914Q349.25 79.635414 349.10938 79.33854Q348.98438 79.041664 348.98438 78.08854L348.98438 74.510414L348.21875 74.510414L348.21875 73.697914L348.98438 73.697914L348.98438 72.15104L350.03125 71.52604L350.03125 73.697914L351.09375 73.697914L351.09375 74.510414L350.03125 74.510414L350.03125 78.15104Q350.03125 78.604164 350.07812 78.729164Q350.14062 78.854164 350.26562 78.93229Q350.39062 79.010414 350.625 79.010414Q350.8125 79.010414 351.09375 78.979164ZM355.82812 79.916664L355.82812 79.135414Q355.23438 80.05729 354.09375 80.05729Q353.34375 80.05729 352.71875 79.65104Q352.09375 79.229164 351.75 78.49479Q351.40625 77.760414 351.40625 76.80729Q351.40625 75.885414 351.71875 75.11979Q352.03125 74.354164 352.65625 73.96354Q353.28125 73.55729 354.04688 73.55729Q354.60938 73.55729 355.04688 73.791664Q355.48438 74.02604 355.76562 74.40104L355.76562 71.322914L356.8125 71.322914L356.8125 79.916664L355.82812 79.916664ZM352.5 76.80729Q352.5 78.010414 353.0 78.604164Q353.5 79.18229 354.1875 79.18229Q354.875 79.18229 355.35938 78.61979Q355.84375 78.05729 355.84375 76.90104Q355.84375 75.61979 355.34375 75.02604Q354.85938 74.43229 354.14062 74.43229Q353.4375 74.43229 352.96875 75.010414Q352.5 75.572914 352.5 76.80729Z" fill-rule="nonzero"/><path fill="#ea4335" d="M386.0 75.916664C386.0 79.23038 383.31372 81.916664 380.0 81.916664C376.68628 81.916664 374.0 79.23038 374.0 75.916664C374.0 72.60296 376.68628 69.916664 380.0 69.916664C383.31372 69.916664 386.0 72.60296 386.0 75.916664Z" fill-rule="nonzero"/><path fill="#1a1a1a" d="M395.76562 79.916664L394.78125 79.916664L394.78125 71.322914L395.84375 71.322914L395.84375 74.385414Q396.51562 73.55729 397.54688 73.55729Q398.125 73.55729 398.625 73.791664Q399.14062 74.010414 399.46875 74.43229Q399.8125 74.854164 400.0 75.447914Q400.1875 76.041664 400.1875 76.71354Q400.1875 78.30729 399.39062 79.18229Q398.59375 80.05729 397.5 80.05729Q396.39062 80.05729 395.76562 79.135414L395.76562 79.916664ZM395.75 76.760414Q395.75 77.86979 396.0625 78.36979Q396.5625 79.18229 397.40625 79.18229Q398.09375 79.18229 398.59375 78.58854Q399.10938 77.99479 399.10938 76.791664Q399.10938 75.572914 398.625 74.99479Q398.14062 74.416664 397.45312 74.416664Q396.76562 74.416664 396.25 75.02604Q395.75 75.61979 395.75 76.760414ZM401.78125 79.916664L401.78125 73.697914L402.73438 73.697914L402.73438 74.635414Q403.09375 73.979164 403.39062 73.77604Q403.70312 73.55729 404.07812 73.55729Q404.60938 73.55729 405.15625 73.885414L404.79688 74.86979Q404.40625 74.635414 404.03125 74.635414Q403.67188 74.635414 403.39062 74.854164Q403.125 75.05729 403.01562 75.43229Q402.82812 75.99479 402.82812 76.65104L402.82812 79.916664L401.78125 79.916664ZM405.40625 76.80729Q405.40625 75.072914 406.35938 74.24479Q407.15625 73.55729 408.3125 73.55729Q409.59375 73.55729 410.40625 74.40104Q411.23438 75.229164 411.23438 76.71354Q411.23438 77.916664 410.875 78.604164Q410.51562 79.291664 409.8125 79.68229Q409.125 80.05729 408.3125 80.05729Q407.01562 80.05729 406.20312 79.229164Q405.40625 78.385414 405.40625 76.80729ZM406.48438 76.80729Q406.48438 77.99479 407.0 78.58854Q407.53125 79.18229 408.3125 79.18229Q409.10938 79.18229 409.625 78.58854Q410.14062 77.99479 410.14062 76.77604Q410.14062 75.61979 409.60938 75.02604Q409.09375 74.43229 408.3125 74.43229Q407.53125 74.43229 407.0 75.02604Q406.48438 75.604164 406.48438 76.80729ZM415.09375 78.979164L415.25 79.90104Q414.79688 79.99479 414.45312 79.99479Q413.875 79.99479 413.5625 79.822914Q413.25 79.635414 413.10938 79.33854Q412.98438 79.041664 412.98438 78.08854L412.98438 74.510414L412.21875 74.510414L412.21875 73.697914L412.98438 73.697914L412.98438 72.15104L414.03125 71.52604L414.03125 73.697914L415.09375 73.697914L415.09375 74.510414L414.03125 74.510414L414.03125 78.15104Q414.03125 78.604164 414.07812 78.729164Q414.14062 78.854164 414.26562 78.93229Q414.39062 79.010414 414.625 79.010414Q414.8125 79.010414 415.09375 78.979164ZM415.76562 79.916664L415.76562 71.322914L416.82812 71.322914L416.82812 79.916664L415.76562 79.916664ZM418.79688 72.541664L418.79688 71.322914L419.85938 71.322914L419.85938 72.541664L418.79688 72.541664ZM418.79688 79.916664L418.79688 73.697914L419.85938 73.697914L419.85938 79.916664L418.79688 79.916664Z" fill-rule="nonzero"/><path fill="#fbbc04" d="M449.0 75.916664C449.0 79.23038 446.31372 81.916664 443.0 81.916664C439.68628 81.916664 437.0 79.23038 437.0 75.916664C437.0 72.60296 439.68628 69.916664 443.0 69.916664C446.31372 69.916664 449.0 72.60296 449.0 75.916664Z" fill-rule="nonzero"/><path fill="#1a1a1a" d="M457.59375 80.43229L458.625 80.58854Q458.6875 81.05729 458.98438 81.27604Q459.375 81.572914 460.04688 81.572914Q460.78125 81.572914 461.17188 81.27604Q461.57812 80.979164 461.71875 80.46354Q461.8125 80.135414 461.79688 79.104164Q461.10938 79.916664 460.07812 79.916664Q458.79688 79.916664 458.09375 78.99479Q457.39062 78.05729 457.39062 76.77604Q457.39062 75.885414 457.70312 75.135414Q458.03125 74.36979 458.64062 73.96354Q459.25 73.55729 460.07812 73.55729Q461.1875 73.55729 461.90625 74.447914L461.90625 73.697914L462.875 73.697914L462.875 79.072914Q462.875 80.52604 462.57812 81.135414Q462.28125 81.74479 461.64062 82.08854Q461.0 82.447914 460.0625 82.447914Q458.95312 82.447914 458.26562 81.947914Q457.57812 81.447914 457.59375 80.43229ZM458.46875 76.697914Q458.46875 77.916664 458.95312 78.479164Q459.4375 79.041664 460.17188 79.041664Q460.90625 79.041664 461.39062 78.479164Q461.89062 77.916664 461.89062 76.729164Q461.89062 75.58854 461.375 75.010414Q460.875 74.43229 460.15625 74.43229Q459.45312 74.43229 458.95312 75.010414Q458.46875 75.572914 458.46875 76.697914ZM464.23438 79.916664L464.23438 79.05729L468.20312 74.510414Q467.51562 74.541664 467.0 74.541664L464.46875 74.541664L464.46875 73.697914L469.5625 73.697914L469.5625 74.385414L466.1875 78.33854L465.53125 79.05729Q466.25 79.010414 466.85938 79.010414L469.75 79.010414L469.75 79.916664L464.23438 79.916664ZM469.79688 72.541664L469.79688 71.322914L470.85938 71.322914L470.85938 72.541664L469.79688 72.541664ZM469.79688 79.916664L469.79688 73.697914L470.85938 73.697914L470.85938 79.916664L469.79688 79.916664ZM472.79688 82.30729L472.79688 73.697914L473.75 73.697914L473.75 74.49479Q474.09375 74.02604 474.51562 73.791664Q474.95312 73.55729 475.5625 73.55729Q476.35938 73.55729 476.96875 73.96354Q477.57812 74.36979 477.875 75.11979Q478.1875 75.86979 478.1875 76.760414Q478.1875 77.71354 477.84375 78.479164Q477.51562 79.24479 476.85938 79.65104Q476.20312 80.05729 475.48438 80.05729Q474.95312 80.05729 474.53125 79.83854Q474.10938 79.604164 473.84375 79.27604L473.84375 82.30729L472.79688 82.30729ZM473.75 76.83854Q473.75 78.041664 474.23438 78.61979Q474.71875 79.18229 475.40625 79.18229Q476.10938 79.18229 476.60938 78.58854Q477.10938 77.99479 477.10938 76.74479Q477.10938 75.55729 476.625 74.979164Q476.14062 74.385414 475.45312 74.385414Q474.78125 74.385414 474.26562 75.010414Q473.75 75.635414 473.75 76.83854Z" fill-rule="nonzero"/><path fill="#34a853" d="M507.0 75.916664C507.0 79.23038 504.31372 81.916664 501.0 81.916664C497.68628 81.916664 495.0 79.23038 495.0 75.916664C495.0 72.60296 497.68628 69.916664 501.0 69.916664C504.31372 69.916664 507.0 72.60296 507.0 75.916664Z" fill-rule="nonzero"/><path fill="#1a1a1a" d="M515.375 78.05729L516.40625 77.90104Q516.5 78.52604 516.8906 78.854164Q517.2969 79.18229 518.03125 79.18229Q518.75 79.18229 519.09375 78.90104Q519.4531 78.604164 519.4531 78.197914Q519.4531 77.83854 519.1406 77.635414Q518.9219 77.49479 518.0625 77.27604Q516.90625 76.979164 516.4531 76.77604Q516.0156 76.55729 515.78125 76.18229Q515.5469 75.80729 515.5469 75.33854Q515.5469 74.93229 515.7344 74.572914Q515.9219 74.21354 516.25 73.979164Q516.5 73.80729 516.9219 73.68229Q517.34375 73.55729 517.84375 73.55729Q518.5625 73.55729 519.1094 73.77604Q519.6719 73.979164 519.9375 74.33854Q520.2031 74.697914 520.2969 75.291664L519.2656 75.43229Q519.2031 74.96354 518.8594 74.697914Q518.53125 74.416664 517.90625 74.416664Q517.1875 74.416664 516.875 74.666664Q516.5625 74.90104 516.5625 75.229164Q516.5625 75.43229 516.6875 75.58854Q516.8281 75.760414 517.09375 75.86979Q517.25 75.93229 518.03125 76.135414Q519.15625 76.447914 519.59375 76.635414Q520.03125 76.822914 520.28125 77.18229Q520.53125 77.541664 520.53125 78.08854Q520.53125 78.61979 520.21875 79.08854Q519.9219 79.541664 519.34375 79.80729Q518.7656 80.05729 518.03125 80.05729Q516.8125 80.05729 516.1719 79.55729Q515.5469 79.041664 515.375 78.05729ZM522.7969 79.916664L522.7969 73.697914L523.7344 73.697914L523.7344 74.572914Q524.4219 73.55729 525.71875 73.55729Q526.28125 73.55729 526.75 73.760414Q527.2344 73.96354 527.46875 74.291664Q527.7031 74.61979 527.7969 75.05729Q527.84375 75.354164 527.84375 76.08854L527.84375 79.916664L526.7969 79.916664L526.7969 76.135414Q526.7969 75.479164 526.6719 75.166664Q526.5469 74.854164 526.2344 74.666664Q525.9219 74.46354 525.5 74.46354Q524.8281 74.46354 524.3281 74.90104Q523.84375 75.322914 523.84375 76.510414L523.84375 79.916664L522.7969 79.916664ZM533.8594 79.15104Q533.2656 79.65104 532.71875 79.854164Q532.1875 80.05729 531.5625 80.05729Q530.53125 80.05729 529.9844 79.55729Q529.4375 79.05729 529.4375 78.27604Q529.4375 77.822914 529.6406 77.447914Q529.84375 77.05729 530.1875 76.83854Q530.53125 76.604164 530.9531 76.49479Q531.25 76.40104 531.8906 76.322914Q533.15625 76.18229 533.7656 75.96354Q533.7656 75.74479 533.7656 75.697914Q533.7656 75.041664 533.46875 74.77604Q533.0625 74.43229 532.2656 74.43229Q531.53125 74.43229 531.1719 74.697914Q530.8125 74.947914 530.6406 75.604164L529.6094 75.46354Q529.75 74.80729 530.0781 74.40104Q530.40625 73.99479 531.0156 73.77604Q531.625 73.55729 532.4219 73.55729Q533.21875 73.55729 533.71875 73.74479Q534.21875 73.93229 534.4531 74.21354Q534.6875 74.49479 534.78125 74.93229Q534.8281 75.197914 534.8281 75.90104L534.8281 77.30729Q534.8281 78.77604 534.8906 79.166664Q534.96875 79.55729 535.1719 79.916664L534.0625 79.916664Q533.90625 79.58854 533.8594 79.15104ZM533.7656 76.791664Q533.1875 77.02604 532.0469 77.197914Q531.3906 77.291664 531.125 77.416664Q530.8594 77.52604 530.7031 77.74479Q530.5625 77.96354 530.5625 78.24479Q530.5625 78.666664 530.875 78.947914Q531.2031 79.229164 531.8125 79.229164Q532.4219 79.229164 532.8906 78.96354Q533.375 78.697914 533.59375 78.229164Q533.7656 77.86979 533.7656 77.18229L533.7656 76.791664ZM536.7969 82.30729L536.7969 73.697914L537.75 73.697914L537.75 74.49479Q538.09375 74.02604 538.5156 73.791664Q538.9531 73.55729 539.5625 73.55729Q540.3594 73.55729 540.96875 73.96354Q541.5781 74.36979 541.875 75.11979Q542.1875 75.86979 542.1875 76.760414Q542.1875 77.71354 541.84375 78.479164Q541.5156 79.24479 540.8594 79.65104Q540.2031 80.05729 539.4844 80.05729Q538.9531 80.05729 538.53125 79.83854Q538.1094 79.604164 537.84375 79.27604L537.84375 82.30729L536.7969 82.30729ZM537.75 76.83854Q537.75 78.041664 538.2344 78.61979Q538.71875 79.18229 539.40625 79.18229Q540.1094 79.18229 540.6094 78.58854Q541.1094 77.99479 541.1094 76.74479Q541.1094 75.55729 540.625 74.979164Q540.1406 74.385414 539.4531 74.385414Q538.78125 74.385414 538.2656 75.010414Q537.75 75.635414 537.75 76.83854ZM543.7969 82.30729L543.7969 73.697914L544.75 73.697914L544.75 74.49479Q545.09375 74.02604 545.5156 73.791664Q545.9531 73.55729 546.5625 73.55729Q547.3594 73.55729 547.96875 73.96354Q548.5781 74.36979 548.875 75.11979Q549.1875 75.86979 549.1875 76.760414Q549.1875 77.71354 548.84375 78.479164Q548.5156 79.24479 547.8594 79.65104Q547.2031 80.05729 546.4844 80.05729Q545.9531 80.05729 545.53125 79.83854Q545.1094 79.604164 544.84375 79.27604L544.84375 82.30729L543.7969 82.30729ZM544.75 76.83854Q544.75 78.041664 545.2344 78.61979Q545.71875 79.18229 546.40625 79.18229Q547.1094 79.18229 547.6094 78.58854Q548.1094 77.99479 548.1094 76.74479Q548.1094 75.55729 547.625 74.979164Q547.1406 74.385414 546.4531 74.385414Q545.78125 74.385414 545.2656 75.010414Q544.75 75.635414 544.75 76.83854ZM550.75 82.30729L550.625 81.322914Q550.96875 81.416664 551.2344 81.416664Q551.5781 81.416664 551.78125 81.291664Q552.0 81.18229 552.1406 80.979164Q552.2344 80.80729 552.46875 80.18229Q552.4844 80.104164 552.5625 79.93229L550.1875 73.697914L551.3281 73.697914L552.625 77.291664Q552.875 77.979164 553.0781 78.74479Q553.2656 78.010414 553.5156 77.322914L554.84375 73.697914L555.8906 73.697914L553.53125 80.02604Q553.1406 81.041664 552.9375 81.43229Q552.65625 81.96354 552.28125 82.197914Q551.9219 82.447914 551.4219 82.447914Q551.125 82.447914 550.75 82.30729Z" fill-rule="nonzero"/><path fill="#757575" d="M29.60625 30.95L44.840626 30.95L44.840626 32.434376L31.16875 32.434376L31.16875 41.184376Q31.16875 44.85625 29.29375 46.965626L28.121876 45.715626Q29.60625 44.153126 29.60625 40.871876L29.60625 30.95ZM39.1375 33.684376Q39.7625 33.91875 39.059376 34.153126L39.059376 37.746876L44.29375 37.746876L44.29375 39.23125L39.059376 39.23125L39.059376 45.403126L45.7 45.403126L45.7 46.8875L31.403126 46.8875L31.403126 45.403126L37.496876 45.403126L37.496876 39.23125L32.809376 39.23125L32.809376 37.746876L37.496876 37.746876L37.496876 33.684376L39.1375 33.684376ZM50.7 38.059376L53.278126 37.825L52.73125 36.496876L53.825 35.95Q54.45 37.121876 54.996876 38.91875L53.825 39.465626L53.66875 38.840626L52.184376 39.075L52.184376 47.590626L50.85625 47.590626L50.85625 39.23125L48.5125 39.54375Q48.434376 40.090626 48.121876 39.778126L47.809376 38.1375L49.1375 38.1375L50.465626 36.184376L48.121876 33.840626L48.98125 32.746876L49.29375 33.059376L51.48125 29.621876L52.809376 30.403126Q53.121876 30.79375 52.575 30.715626L50.309376 33.91875L51.325 34.934376L53.121876 31.965626L54.371876 32.825Q54.684376 33.215626 54.1375 33.1375L50.7 38.059376ZM58.35625 34.778126Q58.04375 36.028126 57.340626 37.903126L57.340626 47.590626L56.0125 47.590626L56.0125 40.16875Q55.7 40.715626 55.075 41.41875L54.215626 40.325Q56.246876 37.903126 57.184376 33.91875L58.590626 34.3875Q58.903126 34.7 58.35625 34.778126ZM59.996876 42.121876L63.746876 42.121876L63.746876 39.778126L59.996876 39.778126L59.996876 42.121876ZM59.996876 43.371876L59.996876 45.715626L63.746876 45.715626L63.746876 43.371876L59.996876 43.371876ZM62.41875 38.528126L65.075 38.528126L65.075 47.434376L63.746876 47.434376L63.746876 46.965626L59.996876 46.965626L59.996876 47.590626L58.66875 47.590626L58.66875 38.528126L61.0125 38.528126L61.16875 36.809376L58.5125 36.809376L58.5125 35.559376L65.85625 35.559376L65.85625 36.809376L62.73125 36.809376L62.41875 38.528126ZM64.21562 34.621876L64.21562 33.1375L56.325 33.1375L56.325 35.0125L54.996876 35.0125L54.996876 31.8875L59.371876 31.8875L59.371876 29.621876L60.85625 29.621876Q61.48125 29.7 60.934376 30.090626L60.934376 31.8875L65.54375 31.8875L65.54375 34.621876L64.21562 34.621876ZM54.29375 40.871876Q54.7625 42.434376 54.7625 44.7L53.35625 44.778126Q53.434376 42.825 53.04375 41.028126L54.29375 40.871876ZM49.840626 40.95Q50.3875 41.10625 49.840626 41.340626Q49.91875 43.371876 48.98125 46.028126L47.653126 45.403126Q48.5125 43.1375 48.5125 40.715626L49.840626 40.95ZM78.12187 45.0125Q77.18437 43.371876 76.55937 42.66875L77.8875 41.73125Q78.5125 42.434376 79.52812 43.996876L78.12187 45.0125ZM81.16875 46.10625Q81.48125 46.10625 81.48125 45.79375L81.48125 41.184376L74.91875 41.184376L74.91875 39.7L81.48125 39.7L81.48125 37.66875L74.05937 37.66875L74.05937 45.090626L72.73125 45.090626L72.73125 44.465626L70.075 44.465626L70.075 45.871876L68.74687 45.871876L68.74687 31.496876L74.05937 31.496876L74.05937 36.184376L78.825 36.184376L78.825 33.91875L75.46562 33.91875L75.46562 32.434376L78.825 32.434376L78.825 29.778126L80.30937 29.778126Q80.93437 29.85625 80.3875 30.246876L80.3875 32.434376L84.37187 32.434376L84.37187 33.91875L80.3875 33.91875L80.3875 36.184376L85.85625 36.184376L85.85625 37.66875L83.04375 37.66875L83.04375 39.7L85.3875 39.7L85.3875 41.184376L83.04375 41.184376L83.04375 46.340626Q83.04375 47.590626 81.79375 47.590626L80.15312 47.590626L79.84062 46.10625L81.16875 46.10625ZM70.075 36.965626L72.73125 36.965626L72.73125 32.98125L70.075 32.98125L70.075 36.965626ZM70.075 42.98125L72.73125 42.98125L72.73125 38.45L70.075 38.45L70.075 42.98125ZM103.12187 46.028126Q103.43437 46.028126 103.43437 45.715626L103.43437 36.73125L100.62187 36.73125L97.80937 36.73125L97.80937 30.48125L104.99687 30.48125L104.99687 46.2625Q104.99687 47.5125 103.74687 47.5125L102.18437 47.5125L102.02812 46.028126L103.12187 46.028126ZM98.98125 42.278126L94.84062 42.278126L94.84062 43.840626L98.98125 43.840626L98.98125 42.278126ZM98.98125 39.309376L94.84062 39.309376L94.84062 41.028126L98.98125 41.028126L98.98125 39.309376ZM100.54375 38.059376L100.54375 45.715626L98.98125 45.715626L98.98125 45.090626L94.84062 45.090626L94.84062 46.340626L93.27812 46.340626L93.27812 38.059376L100.54375 38.059376ZM103.43437 32.98125L103.43437 31.73125L99.37187 31.73125L99.37187 32.98125L103.43437 32.98125ZM103.43437 34.23125L99.37187 34.23125L99.37187 35.48125L103.43437 35.48125L103.43437 34.23125ZM94.21562 34.23125L90.23125 34.23125L90.23125 35.48125L94.21562 35.48125L94.21562 34.23125ZM94.21562 32.98125L94.21562 31.73125L90.23125 31.73125L90.23125 32.98125L94.21562 32.98125ZM95.77812 36.73125L90.23125 36.73125L90.23125 47.590626L88.66875 47.590626L88.66875 30.48125L95.77812 30.48125L95.77812 36.73125ZM112.10625 30.325L113.74687 30.325Q114.60625 30.48125 113.90312 30.95L114.05937 34.7Q114.1375 36.340626 114.60625 37.35625Q116.79375 36.41875 120.46562 35.403126L121.24687 37.434376Q113.825 38.7625 111.325 41.2625Q110.46562 42.121876 110.46562 43.059376Q110.46562 43.7625 111.0125 44.309376Q111.55937 44.85625 113.27812 44.85625L120.77812 44.85625L120.77812 46.575L113.2 46.575Q110.62187 46.575 109.60625 45.559376Q108.59062 44.54375 108.59062 43.215626Q108.59062 41.496876 109.84062 40.246876Q110.77812 39.309376 112.96562 38.059376Q112.49687 36.8875 112.41875 35.48125L112.10625 30.325ZM136.09062 35.559376L140.7 35.559376L140.7 37.278126L136.16875 37.278126L136.16875 38.7625Q136.16875 44.621876 129.99687 47.121876L128.74687 45.715626Q134.37187 43.840626 134.37187 38.91875L134.37187 37.278126L129.21562 37.278126L129.29375 41.2625L127.575 41.2625L127.49687 37.278126L123.12187 37.278126L123.12187 35.559376L127.49687 35.559376L127.41875 31.41875L129.05937 31.41875Q129.84062 31.496876 129.1375 32.2L129.21562 35.559376L134.29375 35.559376L134.29375 30.79375L136.0125 30.79375Q136.79375 30.871876 136.09062 31.575L136.09062 35.559376ZM143.12187 40.246876Q151.325 36.809376 155.54375 30.559376L157.02812 31.809376Q157.65312 32.278126 156.48125 32.5125Q154.99687 34.465626 152.65312 36.496876L152.65312 47.121876L150.85625 47.121876L150.85625 37.98125Q148.12187 40.090626 144.45 41.809376L143.12187 40.246876ZM171.62187 34.075Q170.1375 36.653126 168.49687 38.840626Q171.85625 41.41875 175.1375 44.778126L173.575 46.10625Q170.29375 42.66875 167.24687 40.325Q164.2 43.60625 160.29375 46.184376L158.80937 44.85625Q167.09062 39.465626 169.43437 34.075L160.91875 34.621876L160.68437 32.746876L169.74687 32.35625L170.68437 32.121876L171.93437 33.371876Q172.48125 33.91875 171.62187 34.075ZM175.7625 32.590626Q174.35625 30.95 173.10625 29.934376L174.12187 28.996876Q175.52812 30.090626 176.77812 31.575L175.7625 32.590626ZM173.575 33.840626Q172.55937 32.66875 170.84062 31.10625L172.0125 30.16875Q173.41875 31.41875 174.74687 32.825L173.575 33.840626ZM187.73125 34.934376Q186.40312 42.746876 184.52812 44.621876Q183.5125 45.6375 182.41875 45.6375Q181.16875 45.6375 180.46562 44.934376Q178.59062 43.059376 178.59062 40.246876Q178.59062 36.809376 181.0125 34.3875Q183.66875 31.73125 187.49687 31.73125Q190.93437 31.73125 192.8875 33.684376Q195.075 35.871876 195.075 38.840626Q195.075 42.04375 193.04375 44.075Q191.71562 45.403126 188.98125 46.653126L187.34062 45.0125Q190.075 44.153126 191.6375 42.590626Q193.12187 41.10625 193.12187 38.996876Q193.12187 36.496876 191.48125 34.85625Q189.84062 33.215626 186.325 33.371876L187.73125 34.075Q188.66875 34.465626 187.73125 34.934376ZM185.93437 33.45Q183.90312 33.91875 182.41875 35.403126Q180.3875 37.434376 180.3875 40.403126Q180.3875 42.2 181.55937 43.371876Q181.79375 43.60625 182.2625 43.60625Q182.73125 43.60625 183.27812 43.059376Q185.075 41.2625 185.93437 33.45ZM206.16875 40.090626L202.10625 40.090626L202.10625 38.840626L204.05937 38.840626Q203.825 38.29375 203.27812 37.66875L204.68437 37.2Q205.23125 37.825 205.7 38.840626L208.12187 38.840626L208.74687 37.121876L210.075 37.5125Q210.54375 37.825 209.99687 38.059376L209.60625 38.840626L211.87187 38.840626L211.87187 40.090626L207.49687 40.090626L207.49687 41.73125L212.41875 41.73125L212.41875 42.98125L207.41875 42.98125L207.34062 43.45Q209.45 43.996876 211.79375 45.246876L210.77812 46.73125Q208.5125 45.325 207.02812 44.621876Q206.09062 46.41875 202.49687 47.5125L201.79375 45.95Q205.77812 45.0125 206.0125 42.98125L201.6375 42.98125L201.6375 41.73125L206.16875 41.73125L206.16875 40.090626ZM215.075 46.340626Q215.075 47.590626 213.825 47.590626L212.49687 47.590626L212.34062 46.10625L213.2 46.10625Q213.5125 46.10625 213.5125 45.79375L213.5125 36.8875L210.77812 36.8875L208.04375 36.8875L208.04375 30.246876L215.075 30.246876L215.075 46.340626ZM204.37187 35.6375L204.37187 34.23125L200.3875 34.23125L200.3875 35.6375L204.37187 35.6375ZM200.3875 31.496876L200.3875 32.98125L204.37187 32.98125L204.37187 31.496876L200.3875 31.496876ZM200.3875 47.746876L198.825 47.746876L198.825 30.246876L205.93437 30.246876L205.93437 36.8875L200.3875 36.8875L200.3875 47.746876ZM213.5125 35.6375L213.5125 34.23125L209.60625 34.23125L209.60625 35.6375L213.5125 35.6375ZM213.5125 32.98125L213.5125 31.496876L209.60625 31.496876L209.60625 32.98125L213.5125 32.98125ZM223.35625 31.496876Q229.52812 31.184376 233.5125 30.403126L234.60625 31.965626Q234.7625 32.434376 233.98125 32.04375Q231.55937 32.35625 229.1375 32.590626L230.075 33.29375Q230.23125 33.60625 229.7625 33.528126Q228.12187 35.403126 227.18437 36.41875Q227.80937 36.965626 228.35625 37.434376Q229.7625 36.184376 231.48125 34.075L233.04375 35.16875Q233.2 35.48125 232.65312 35.403126Q230.46562 37.5125 228.2 39.54375L232.65312 39.3875L231.40312 38.215626L232.49687 37.35625Q234.29375 38.60625 235.85625 40.559376L234.45 41.653126L233.66875 40.6375L230.075 40.95L230.075 47.66875L228.5125 47.66875L228.5125 41.10625L223.90312 41.340626Q223.825 41.8875 223.5125 41.575L222.96562 39.54375L226.24687 39.54375L227.2625 38.528126Q225.85625 37.2 224.29375 36.184376L225.23125 34.934376L226.09062 35.559376Q227.18437 34.3875 228.27812 32.66875Q226.0125 32.825 223.74687 32.903126L223.35625 31.496876ZM221.79375 47.590626L220.23125 47.590626L220.23125 37.98125Q219.68437 38.840626 218.98125 39.54375L217.73125 38.29375Q220.54375 35.403126 221.325 30.0125L223.27812 30.559376Q223.59062 30.871876 223.04375 30.95Q222.18437 34.075 221.79375 35.090626L221.95 35.16875Q222.2625 35.403126 221.79375 35.6375L221.79375 47.590626ZM226.87187 43.371876Q225.85625 45.246876 224.1375 46.965626L222.73125 45.79375Q224.68437 44.23125 225.7 42.04375L227.18437 42.903126Q227.65312 43.059376 226.87187 43.371876ZM232.34062 41.965626Q233.66875 44.075 235.77812 45.559376L234.52812 46.965626Q232.10625 45.090626 231.0125 42.98125L232.34062 41.965626Z" fill-rule="nonzero"/></svg>